<svg width="40" height="40" viewBox="0 0 40 40" fill="none" xmlns="http://www.w3.org/2000/svg">
    <path
        d="M32.0667 9.29993H31.4L25.7667 3.6666C25.3167 3.2166 24.5833 3.2166 24.1167 3.6666C23.6667 4.1166 23.6667 4.84993 24.1167 5.3166L28.1 9.29993H11.9L15.8833 5.3166C16.3333 4.8666 16.3333 4.13327 15.8833 3.6666C15.4333 3.2166 14.7 3.2166 14.2333 3.6666L8.61666 9.29993H7.95C6.45 9.29993 3.33333 9.29994 3.33333 13.5666C3.33333 15.1833 3.66666 16.2499 4.36666 16.9499C4.76666 17.3666 5.25 17.5833 5.76666 17.6999C6.24999 17.8166 6.76666 17.8333 7.26666 17.8333H32.7333C33.25 17.8333 33.7333 17.7999 34.2 17.6999C35.6 17.3666 36.6667 16.3666 36.6667 13.5666C36.6667 9.29994 33.55 9.29993 32.0667 9.29993Z"
        fill="#315881" />
    <path
        d="M31.75 20H8.11666C7.08333 20 6.3 20.9167 6.46666 21.9333L7.86666 30.5C8.33333 33.3667 9.58333 36.6667 15.1333 36.6667H24.4833C30.1 36.6667 31.1 33.85 31.7 30.7L33.3833 21.9833C33.5833 20.95 32.8 20 31.75 20ZM17.6833 30.75C17.6833 31.4 17.1667 31.9167 16.5333 31.9167C15.8833 31.9167 15.3667 31.4 15.3667 30.75V25.25C15.3667 24.6167 15.8833 24.0833 16.5333 24.0833C17.1667 24.0833 17.6833 24.6167 17.6833 25.25V30.75ZM24.8167 30.75C24.8167 31.4 24.3 31.9167 23.65 31.9167C23.0167 31.9167 22.4833 31.4 22.4833 30.75V25.25C22.4833 24.6167 23.0167 24.0833 23.65 24.0833C24.3 24.0833 24.8167 24.6167 24.8167 25.25V30.75Z"
        fill="#315881" />
</svg>