<svg width="30" height="30" viewBox="0 0 30 30" fill="none" xmlns="http://www.w3.org/2000/svg">
    <path d="M11 19L19 11" stroke="#315881" stroke-width="2" stroke-linecap="round"
        stroke-linejoin="round" />
    <path
        d="M11.5 12C11.7761 12 12 11.7761 12 11.5C12 11.2239 11.7761 11 11.5 11C11.2239 11 11 11.2239 11 11.5C11 11.7761 11.2239 12 11.5 12Z"
        fill="#315881" stroke="#315881" stroke-width="2" stroke-linecap="round"
        stroke-linejoin="round" />
    <path
        d="M18.5 19C18.7761 19 19 18.7761 19 18.5C19 18.2239 18.7761 18 18.5 18C18.2239 18 18 18.2239 18 18.5C18 18.7761 18.2239 19 18.5 19Z"
        fill="#315881" stroke="#315881" stroke-width="2" stroke-linecap="round"
        stroke-linejoin="round" />
    <path
        d="M6.43102 9.12029C6.43102 8.40705 6.71436 7.72303 7.21869 7.21869C7.72303 6.71436 8.40705 6.43102 9.12029 6.43102H10.3427C11.0528 6.43062 11.7339 6.14939 12.2374 5.64869L13.0931 4.79302C13.343 4.54169 13.6401 4.34225 13.9674 4.20616C14.2946 4.07006 14.6456 4 15 4C15.3544 4 15.7054 4.07006 16.0326 4.20616C16.3599 4.34225 16.657 4.54169 16.9069 4.79302L17.7626 5.64869C18.2661 6.14939 18.9472 6.43062 19.6573 6.43102H20.8797C21.5929 6.43102 22.277 6.71436 22.7813 7.21869C23.2856 7.72303 23.569 8.40705 23.569 9.12029V10.3427C23.5694 11.0528 23.8506 11.7339 24.3513 12.2374L25.207 13.0931C25.4583 13.343 25.6577 13.6401 25.7938 13.9674C25.9299 14.2946 26 14.6456 26 15C26 15.3544 25.9299 15.7054 25.7938 16.0326C25.6577 16.3599 25.4583 16.657 25.207 16.9069L24.3513 17.7626C23.8506 18.2661 23.5694 18.9472 23.569 19.6573V20.8797C23.569 21.5929 23.2856 22.277 22.7813 22.7813C22.277 23.2856 21.5929 23.569 20.8797 23.569H19.6573C18.9472 23.5694 18.2661 23.8506 17.7626 24.3513L16.9069 25.207C16.657 25.4583 16.3599 25.6577 16.0326 25.7938C15.7054 25.9299 15.3544 26 15 26C14.6456 26 14.2946 25.9299 13.9674 25.7938C13.6401 25.6577 13.343 25.4583 13.0931 25.207L12.2374 24.3513C11.7339 23.8506 11.0528 23.5694 10.3427 23.569H9.12029C8.40705 23.569 7.72303 23.2856 7.21869 22.7813C6.71436 22.277 6.43102 21.5929 6.43102 20.8797V19.6573C6.43062 18.9472 6.14939 18.2661 5.64869 17.7626L4.79302 16.9069C4.54169 16.657 4.34225 16.3599 4.20616 16.0326C4.07006 15.7054 4 15.3544 4 15C4 14.6456 4.07006 14.2946 4.20616 13.9674C4.34225 13.6401 4.54169 13.343 4.79302 13.0931L5.64869 12.2374C6.14939 11.7339 6.43062 11.0528 6.43102 10.3427V9.12029"
        stroke="#315881" stroke-width="2" stroke-linecap="round" stroke-linejoin="round" />
</svg>