<svg width="40" height="40" viewBox="0 0 40 40" fill="none" xmlns="http://www.w3.org/2000/svg">
    <path
        d="M8.33334 25C6.76667 25 5.31667 25.55 4.16667 26.4667C2.63334 27.6833 1.66667 29.5667 1.66667 31.6667C1.66667 32.9167 2.01667 34.1 2.63334 35.1C3.78334 37.0333 5.9 38.3333 8.33334 38.3333C10.0167 38.3333 11.55 37.7167 12.7167 36.6667C13.2333 36.2333 13.6833 35.7 14.0333 35.1C14.65 34.1 15 32.9167 15 31.6667C15 27.9833 12.0167 25 8.33334 25ZM11.7833 30.95L8.23334 34.2333C8.00001 34.45 7.68334 34.5667 7.38334 34.5667C7.06667 34.5667 6.75001 34.45 6.50001 34.2L4.85001 32.55C4.36667 32.0667 4.36667 31.2667 4.85001 30.7833C5.33334 30.3 6.13334 30.3 6.61667 30.7833L7.41667 31.5833L10.0833 29.1167C10.5833 28.65 11.3833 28.6833 11.85 29.1833C12.3167 29.6833 12.2833 30.4833 11.7833 30.95Z"
        fill="#315881" />
    <path
        d="M24.75 6.58317V12.9165H22.25V6.58317C22.25 6.13317 21.85 5.9165 21.5833 5.9165C21.5 5.9165 21.4167 5.93317 21.3333 5.9665L8.11667 10.9498C7.23334 11.2832 6.66667 12.1165 6.66667 13.0665V14.1832C5.15001 15.3165 4.16667 17.1332 4.16667 19.1832V13.0665C4.16667 11.0832 5.38334 9.3165 7.23334 8.6165L20.4667 3.6165C20.8333 3.48317 21.2167 3.4165 21.5833 3.4165C23.25 3.4165 24.75 4.7665 24.75 6.58317Z"
        fill="#315881" />
    <path
        d="M35.8333 24.1668V25.8335C35.8333 26.2835 35.4833 26.6502 35.0167 26.6668H32.5833C31.7 26.6668 30.9 26.0168 30.8333 25.1502C30.7833 24.6335 30.9833 24.1502 31.3167 23.8168C31.6167 23.5002 32.0333 23.3335 32.4833 23.3335H35C35.4833 23.3502 35.8333 23.7168 35.8333 24.1668Z"
        fill="#315881" />
    <path
        d="M32.4667 21.5832H34.1667C35.0833 21.5832 35.8333 20.8332 35.8333 19.9165V19.1832C35.8333 15.7332 33.0167 12.9165 29.5667 12.9165H10.4333C9.01667 12.9165 7.71667 13.3832 6.66667 14.1832C5.15001 15.3165 4.16667 17.1332 4.16667 19.1832V22.1498C4.16667 22.7832 4.83334 23.1832 5.43334 22.9832C6.36667 22.6665 7.35001 22.4998 8.33334 22.4998C13.3833 22.4998 17.5 26.6165 17.5 31.6665C17.5 32.8665 17.1833 34.1832 16.6833 35.3498C16.4167 35.9498 16.8333 36.6665 17.4833 36.6665H29.5667C33.0167 36.6665 35.8333 33.8498 35.8333 30.3998V30.0832C35.8333 29.1665 35.0833 28.4165 34.1667 28.4165H32.7167C31.1167 28.4165 29.5833 27.4332 29.1667 25.8832C28.8333 24.6165 29.2333 23.3832 30.0667 22.5832C30.6833 21.9498 31.5333 21.5832 32.4667 21.5832ZM23.3333 21.2498H15C14.3167 21.2498 13.75 20.6832 13.75 19.9998C13.75 19.3165 14.3167 18.7498 15 18.7498H23.3333C24.0167 18.7498 24.5833 19.3165 24.5833 19.9998C24.5833 20.6832 24.0167 21.2498 23.3333 21.2498Z"
        fill="#315881" />
</svg>