<svg width="40" height="40" viewBox="0 0 40 40" fill="none" xmlns="http://www.w3.org/2000/svg">
    <path
        d="M15 3.3335C10.6333 3.3335 7.08333 6.8835 7.08333 11.2502C7.08333 15.5335 10.4333 19.0002 14.8 19.1502C14.9333 19.1335 15.0667 19.1335 15.1667 19.1502C15.2 19.1502 15.2167 19.1502 15.25 19.1502C15.2667 19.1502 15.2667 19.1502 15.2833 19.1502C19.55 19.0002 22.9 15.5335 22.9167 11.2502C22.9167 6.8835 19.3667 3.3335 15 3.3335Z"
        fill="#315881" />
    <path
        d="M23.4667 23.5833C18.8167 20.4833 11.2333 20.4833 6.55 23.5833C4.43333 25 3.26667 26.9166 3.26667 28.9666C3.26667 31.0166 4.43333 32.9166 6.53333 34.3166C8.86667 35.8833 11.9333 36.6666 15 36.6666C18.0667 36.6666 21.1333 35.8833 23.4667 34.3166C25.5667 32.9 26.7333 31 26.7333 28.9333C26.7167 26.8833 25.5667 24.9833 23.4667 23.5833Z"
        fill="#315881" />
    <path
        d="M33.3167 12.2332C33.5833 15.4665 31.2833 18.2998 28.1 18.6832C28.0833 18.6832 28.0833 18.6832 28.0667 18.6832H28.0167C27.9167 18.6832 27.8167 18.6832 27.7333 18.7165C26.1167 18.7998 24.6333 18.2832 23.5167 17.3332C25.2333 15.7998 26.2167 13.4998 26.0167 10.9998C25.9 9.64984 25.4333 8.41651 24.7333 7.36651C25.3667 7.04984 26.1 6.84984 26.85 6.78317C30.1167 6.49984 33.0333 8.93317 33.3167 12.2332Z"
        fill="#315881" />
    <path
        d="M36.65 27.6498C36.5167 29.2665 35.4833 30.6665 33.75 31.6165C32.0833 32.5332 29.9833 32.9665 27.9 32.9165C29.1 31.8332 29.8 30.4832 29.9333 29.0498C30.1 26.9832 29.1167 24.9998 27.15 23.4165C26.0333 22.5332 24.7333 21.8332 23.3167 21.3165C27 20.2498 31.6333 20.9665 34.4833 23.2665C36.0167 24.4998 36.8 26.0498 36.65 27.6498Z"
        fill="#315881" />
</svg>