<svg width="40" height="40" viewBox="0 0 40 40" fill="none" xmlns="http://www.w3.org/2000/svg">
    <path
        d="M36.6667 13.0166V20.8333H29.8667C29.6667 20.8166 29.2333 20.5666 29.1333 20.3832L27.4 17.0999C26.7167 15.7999 25.5333 15.0666 24.2667 15.1333C23 15.1999 21.9167 16.0499 21.3667 17.4333L19.0667 23.1999L18.7333 22.3333C17.9167 20.2166 15.5833 18.6166 13.2833 18.6166L3.33334 18.6666V13.0166C3.33334 6.94992 6.95001 3.33325 13.0167 3.33325H26.9833C33.05 3.33325 36.6667 6.94992 36.6667 13.0166Z"
        fill="#315881" />
    <path
        d="M36.6667 26.9833V23.3332H29.8667C28.75 23.3332 27.4333 22.5333 26.9167 21.5499L25.1833 18.2666C24.7167 17.3832 24.05 17.4332 23.6833 18.3499L19.85 28.0332C19.4333 29.1166 18.7333 29.1166 18.3 28.0332L16.4 23.2332C15.95 22.0666 14.55 21.1166 13.3 21.1166L3.33334 21.1666V26.9833C3.33334 32.9499 6.83334 36.5499 12.7167 36.6499C12.9 36.6666 13.1 36.6666 13.2833 36.6666H26.6167C26.8667 36.6666 27.1167 36.6666 27.35 36.6499C33.2 36.5166 36.6667 32.9333 36.6667 26.9833Z"
        fill="#315881" />
    <path
        d="M3.33333 21.1667V26.6834C3.29999 26.1501 3.28333 25.5834 3.28333 25.0001V21.1667H3.33333Z"
        fill="#315881" />
</svg>