<svg width="71" height="28" viewBox="0 0 71 28" fill="none" xmlns="http://www.w3.org/2000/svg">
    <path
        d="M20.3414 22.9364L20.6821 4.21324C20.7118 2.57793 22.046 1.26782 23.6816 1.26782H31.2322C32.889 1.26782 34.2322 2.61097 34.2322 4.26782V22.991C34.2322 24.6479 32.889 25.991 31.2322 25.991H23.3409C21.6626 25.991 20.3108 24.6144 20.3414 22.9364Z"
        fill="#CACACA" />
    <path
        d="M38.0888 22.9389L38.414 4.21572C38.4424 2.57942 39.777 1.26782 41.4135 1.26782H48.3483C50.0051 1.26782 51.3483 2.61097 51.3483 4.26782V22.991C51.3483 24.6479 50.0051 25.991 48.3483 25.991H41.0883C39.4111 25.991 38.0597 24.6159 38.0888 22.9389Z"
        fill="#CACACA" />
    <path
        d="M20.9526 -3.66347e-06L29.3904 2.19027e-05C31.8424 2.93325e-05 33.2588 2.78209 31.8163 4.76494L15.1988 27.606L6.04321 27.606C3.56315 27.606 2.15418 24.7677 3.65356 22.7922L20.9526 -3.66347e-06Z"
        fill="#315881" />
    <path
        d="M40.0868 1.25164e-06L46.9775 2.21305e-05C49.4296 2.95602e-05 50.846 2.78209 49.4034 4.76494L33.6845 26.3709C33.1199 27.1469 32.2182 27.606 31.2586 27.606L24.7077 27.606C22.2698 27.606 20.8499 24.8524 22.2636 22.8663L37.6427 1.26032C38.2055 0.469574 39.1162 -3.53647e-06 40.0868 1.25164e-06Z"
        fill="#315881" />
    <path
        d="M56.6698 -3.49264e-06L65.3306 2.27494e-05C67.7394 3.00482e-05 69.1659 2.69587 67.8109 4.68753L52.2187 27.606L42.568 27.606C40.1195 27.606 38.7022 24.831 40.1376 22.8473L56.6698 -3.49264e-06Z"
        fill="#315881" />
</svg>