<svg width="40" height="40" viewBox="0 0 40 40" fill="none" xmlns="http://www.w3.org/2000/svg">
    <path
        d="M13 36.9167C8.58333 36.9167 4.98333 33.3334 4.98333 28.9001V24.1667C4.98333 23.0501 6.08333 22.3001 7.13333 22.6667C7.56667 22.8167 8 22.9167 8.45 22.9834C8.65 23.0167 8.85 23.0501 9.05 23.0501C9.3 23.0834 9.56667 23.1001 9.81667 23.1001C11.6667 23.1001 13.5 22.4167 14.95 21.2334C16.3333 22.4167 18.1167 23.1001 20.0167 23.1001C21.9167 23.1001 23.6833 22.4501 25.0667 21.2501C26.5 22.4167 28.3 23.1001 30.1333 23.1001C30.4167 23.1001 30.7167 23.0834 30.9833 23.0501C31.1833 23.0334 31.35 23.0167 31.5333 22.9834C32.0333 22.9167 32.4833 22.7834 32.9333 22.6334C33.9667 22.2834 35.05 23.0501 35.05 24.1334V28.9001C35.05 33.3167 31.4667 36.9167 27.0333 36.9167H13Z"
        fill="#315881" />
    <path
        d="M36.6333 14.3166L36.1667 9.88325C35.5 5.04992 33.3 3.08325 28.6167 3.08325H11.3667C6.66667 3.08325 4.48333 5.04992 3.8 9.93325L3.36667 14.3333C3.2 16.0499 3.66667 17.7166 4.68333 19.0166C5.9 20.5999 7.76667 21.4999 9.85 21.4999C11.8667 21.4999 13.8 20.4832 15.0333 18.8666C16.1167 20.4832 17.9667 21.4999 20.0333 21.4999C22.1 21.4999 23.9167 20.5332 25.0167 18.9332C26.25 20.5166 28.1667 21.4999 30.15 21.4999C32.2833 21.4999 34.2 20.5499 35.4 18.8832C36.3667 17.5999 36.8 15.9833 36.6333 14.3166ZM22.5 12.8833H17.5C16.8167 12.8833 16.25 12.3333 16.25 11.6333C16.25 10.9499 16.8167 10.3833 17.5 10.3833H22.5C23.1833 10.3833 23.75 10.9499 23.75 11.6333C23.75 12.3333 23.1833 12.8833 22.5 12.8833Z"
        fill="#315881" />
</svg>