<svg width="40" height="40" viewBox="0 0 40 40" fill="none" xmlns="http://www.w3.org/2000/svg">
    <path
        d="M26.9833 3.3335H13.0167C6.95001 3.3335 3.33334 6.95016 3.33334 13.0168V26.9835C3.33334 33.0502 6.95001 36.6668 13.0167 36.6668H26.9833C33.05 36.6668 36.6667 33.0502 36.6667 26.9835V13.0168C36.6667 6.95016 33.05 3.3335 26.9833 3.3335ZM16.6167 24.8335L12.8667 28.5835C12.6167 28.8335 12.3 28.9502 11.9833 28.9502C11.6667 28.9502 11.3333 28.8335 11.1 28.5835L9.85001 27.3335C9.35001 26.8502 9.35001 26.0502 9.85001 25.5668C10.3333 25.0835 11.1167 25.0835 11.6167 25.5668L11.9833 25.9335L14.85 23.0668C15.3333 22.5835 16.1167 22.5835 16.6167 23.0668C17.1 23.5502 17.1 24.3502 16.6167 24.8335ZM16.6167 13.1668L12.8667 16.9168C12.6167 17.1668 12.3 17.2835 11.9833 17.2835C11.6667 17.2835 11.3333 17.1668 11.1 16.9168L9.85001 15.6668C9.35001 15.1835 9.35001 14.3835 9.85001 13.9002C10.3333 13.4168 11.1167 13.4168 11.6167 13.9002L11.9833 14.2668L14.85 11.4002C15.3333 10.9168 16.1167 10.9168 16.6167 11.4002C17.1 11.8835 17.1 12.6835 16.6167 13.1668ZM29.2667 27.7002H20.5167C19.8333 27.7002 19.2667 27.1335 19.2667 26.4502C19.2667 25.7668 19.8333 25.2002 20.5167 25.2002H29.2667C29.9667 25.2002 30.5167 25.7668 30.5167 26.4502C30.5167 27.1335 29.9667 27.7002 29.2667 27.7002ZM29.2667 16.0335H20.5167C19.8333 16.0335 19.2667 15.4668 19.2667 14.7835C19.2667 14.1002 19.8333 13.5335 20.5167 13.5335H29.2667C29.9667 13.5335 30.5167 14.1002 30.5167 14.7835C30.5167 15.4668 29.9667 16.0335 29.2667 16.0335Z"
        fill="#315881" />
</svg>